<svg width="36" height="36" viewBox="0 0 36 36" fill="none" xmlns="http://www.w3.org/2000/svg">
<path d="M19.5554 1.04464C19.1428 0.632206 18.5834 0.400513 18 0.400513C17.4166 0.400513 16.8572 0.632206 16.4446 1.04464L1.0446 16.4446C0.643853 16.8596 0.422105 17.4153 0.427118 17.9921C0.43213 18.569 0.663502 19.1207 1.0714 19.5286C1.4793 19.9365 2.03108 20.1679 2.60792 20.1729C3.18475 20.1779 3.74048 19.9562 4.1554 19.5554L4.8 18.9108V33.4C4.8 33.9835 5.03179 34.5431 5.44437 34.9557C5.85695 35.3683 6.41652 35.6 7 35.6H11.4C11.9835 35.6 12.5431 35.3683 12.9556 34.9557C13.3682 34.5431 13.6 33.9835 13.6 33.4V29C13.6 28.4166 13.8318 27.857 14.2444 27.4444C14.6569 27.0318 15.2165 26.8 15.8 26.8H20.2C20.7835 26.8 21.3431 27.0318 21.7556 27.4444C22.1682 27.857 22.4 28.4166 22.4 29V33.4C22.4 33.9835 22.6318 34.5431 23.0444 34.9557C23.4569 35.3683 24.0165 35.6 24.6 35.6H29C29.5835 35.6 30.1431 35.3683 30.5556 34.9557C30.9682 34.5431 31.2 33.9835 31.2 33.4V18.9108L31.8446 19.5554C32.2595 19.9562 32.8152 20.1779 33.3921 20.1729C33.9689 20.1679 34.5207 19.9365 34.9286 19.5286C35.3365 19.1207 35.5679 18.569 35.5729 17.9921C35.5779 17.4153 35.3561 16.8596 34.9554 16.4446L19.5554 1.04464Z" fill="url(#paint0_linear_3_63)"/>
<defs>
<linearGradient id="paint0_linear_3_63" x1="18" y1="0.400513" x2="18" y2="35.6" gradientUnits="userSpaceOnUse">
<stop stop-color="#5C4CFC"/>
<stop offset="1" stop-color="#5C4CFC" stop-opacity="0.76"/>
</linearGradient>
</defs>
</svg>
